<svg version="1.1" viewBox="0.0 0.0 63.35958005249344 63.35958005249344" fill="none" stroke="none" stroke-linecap="square" stroke-miterlimit="10" xmlns:xlink="http://www.w3.org/1999/xlink" xmlns="http://www.w3.org/2000/svg"><clipPath id="g3cc9813c665_0_56.0"><path d="m0 0l63.35958 0l0 63.35958l-63.35958 0l0 -63.35958z" clip-rule="nonzero"/></clipPath><g clip-path="url(#g3cc9813c665_0_56.0)"><path fill="#000000" fill-opacity="0.0" d="m0 0l63.35958 0l0 63.35958l-63.35958 0z" fill-rule="evenodd"/><path fill="#000000" fill-opacity="0.0" d="m18.502556 6.8471828l26.358463 0c3.4530296 0 6.252266 3.7413487 6.252266 8.356535c0 4.6151867 -2.7992363 8.356535 -6.252266 8.356535l-26.358463 0c-3.4530296 0 -6.252264 -3.7413483 -6.252264 -8.356535c0 -4.6151867 2.7992344 -8.356535 6.252264 -8.356535z" fill-rule="evenodd"/><path stroke="#ffffff" stroke-width="7.921259842519685" stroke-linejoin="round" stroke-linecap="butt" d="m18.502556 6.8471828l26.358463 0c3.4530296 0 6.252266 3.7413487 6.252266 8.356535c0 4.6151867 -2.7992363 8.356535 -6.252266 8.356535l-26.358463 0c-3.4530296 0 -6.252264 -3.7413483 -6.252264 -8.356535c0 -4.6151867 2.7992344 -8.356535 6.252264 -8.356535z" fill-rule="evenodd"/><path fill="#ffffff" d="m48.764645 31.896187c0.44647598 0 0.8084183 0.36193848 0.8084183 0.80841446l0 17.406792c0 0.21440506 -0.08517456 0.4200287 -0.23678207 0.5716362c-0.15160751 0.15160751 -0.35723114 0.23678207 -0.5716362 0.23678207l-3.2335625 0c-0.44647598 0 -0.80841446 -0.3619423 -0.80841446 -0.8084183l0 -17.406792c0 -0.44647598 0.36193848 -0.80841446 0.80841446 -0.80841446z" fill-rule="evenodd"/><path stroke="#ffffff" stroke-width="2.010498687664042" stroke-linejoin="round" stroke-linecap="butt" d="m48.764645 31.896187c0.44647598 0 0.8084183 0.36193848 0.8084183 0.80841446l0 17.406792c0 0.21440506 -0.08517456 0.4200287 -0.23678207 0.5716362c-0.15160751 0.15160751 -0.35723114 0.23678207 -0.5716362 0.23678207l-3.2335625 0c-0.44647598 0 -0.80841446 -0.3619423 -0.80841446 -0.8084183l0 -17.406792c0 -0.44647598 0.36193848 -0.80841446 0.80841446 -0.80841446z" fill-rule="evenodd"/><path fill="#ffffff" d="m35.13891 33.500336c1.0205116 0 1.847805 0.8272896 1.847805 1.847805l0 23.296516c0 0.49006653 -0.19467926 0.96006393 -0.5412102 1.3065948c-0.3465309 0.3465309 -0.8165283 0.5412102 -1.3065948 0.5412102l-7.3910046 0c-1.0205135 0 -1.847805 -0.8272934 -1.847805 -1.847805l0 -23.296516c0 -1.0205154 0.8272915 -1.847805 1.847805 -1.847805z" fill-rule="evenodd"/><path stroke="#ffffff" stroke-width="2.286089238845144" stroke-linejoin="round" stroke-linecap="butt" d="m35.13891 33.500336c1.0205116 0 1.847805 0.8272896 1.847805 1.847805l0 23.296516c0 0.49006653 -0.19467926 0.96006393 -0.5412102 1.3065948c-0.3465309 0.3465309 -0.8165283 0.5412102 -1.3065948 0.5412102l-7.3910046 0c-1.0205135 0 -1.847805 -0.8272934 -1.847805 -1.847805l0 -23.296516c0 -1.0205154 0.8272915 -1.847805 1.847805 -1.847805z" fill-rule="evenodd"/><path fill="#ffffff" d="m17.355091 31.896187c0.44647408 0 0.80841446 0.36193848 0.80841446 0.80841446l0 17.406792c0 0.21440506 -0.08517265 0.4200287 -0.23677826 0.5716362c-0.15160751 0.15160751 -0.35723114 0.23678207 -0.5716362 0.23678207l-3.2335644 0c-0.44647503 0 -0.80841446 -0.3619423 -0.80841446 -0.8084183l0 -17.406792c0 -0.44647598 0.36193943 -0.80841446 0.80841446 -0.80841446z" fill-rule="evenodd"/><path stroke="#ffffff" stroke-width="2.010498687664042" stroke-linejoin="round" stroke-linecap="butt" d="m17.355091 31.896187c0.44647408 0 0.80841446 0.36193848 0.80841446 0.80841446l0 17.406792c0 0.21440506 -0.08517265 0.4200287 -0.23677826 0.5716362c-0.15160751 0.15160751 -0.35723114 0.23678207 -0.5716362 0.23678207l-3.2335644 0c-0.44647503 0 -0.80841446 -0.3619423 -0.80841446 -0.8084183l0 -17.406792c0 -0.44647598 0.36193943 -0.80841446 0.80841446 -0.80841446z" fill-rule="evenodd"/></g></svg>